<?xml version="1.0" encoding="UTF-8"?>
<svg width="500px" height="620px" viewBox="0 0 500 620" version="1.1" xmlns="http://www.w3.org/2000/svg" xmlns:xlink="http://www.w3.org/1999/xlink">
    <!-- Generator: Sketch 52.5 (67469) - http://www.bohemiancoding.com/sketch -->
    <title>open-hand</title>
    <desc>Created with Sketch.</desc>
    <g id="open-hand" stroke="none" stroke-width="1" fill="none" fill-rule="evenodd">
        <g transform="translate(253.000000, 310.000000) rotate(-360.000000) translate(-253.000000, -310.000000) translate(40.000000, 40.000000)">
            <path d="M376.500068,107.246039 C358.550928,107.246039 344.000068,121.894228 344.000068,139.963431 L344.000068,96.3399003 C344.000068,78.270698 329.449209,63.622508 311.500068,63.622508 C293.550928,63.622508 279.000068,78.270698 279.000068,96.3399003 L279.000068,52.7173922 C279.000068,34.64819 264.449209,20 246.500068,20 C228.550928,20 214.000069,34.64819 214.000069,52.7173922 L214.000069,96.3409227 C214.000069,78.2717204 199.449209,63.6235305 181.500069,63.6235305 C163.550928,63.6235305 149.000069,78.2717204 149.000069,96.3409227 L149.000069,325.362668 L73.7737408,287.497399 C66.2530377,283.711383 57.959444,281.74016 49.550069,281.739138 C32.6774909,281.739138 19.0000691,295.508048 19.0000691,312.493487 L19.0000691,312.624356 C18.9828034,320.803704 22.2033503,328.652811 27.9487409,334.43561 L168.045069,475.469042 C197.480928,505.072147 237.392959,521.689515 279.000068,521.665999 C350.796631,521.665999 409.000068,463.07324 409.000068,390.79643 L409.000068,139.963431 C409.000068,121.894228 394.449209,107.246039 376.500068,107.246039 Z" id="Path" fill="#F3C59F"></path>
            <g id="Group" transform="translate(146.000000, 14.000000)" fill="#BD997C">
                <path d="M68.0007572,233 C81.2546748,233 92,227.840467 92,221.476396 L92,0 C76.6604633,6.45589763 67.9062631,15.7875649 68.0007572,25.5816024 L68.0007572,233 Z" id="Path"></path>
                <path d="M139.000757,233 C152.254675,233 163,228.003549 163,221.840631 L163,52 C147.660463,58.2518409 138.906263,67.2885547 139.000757,76.7730241 L139.000757,233 Z" id="Path"></path>
                <path d="M0.000757162353,326 C13.2546748,326 24,318.436312 24,309.106812 L24,52 C8.66046333,61.4641127 -0.0937369034,75.1439999 0.000757162353,89.5017051 L0.000757162353,326 Z" id="Path-Copy"></path>
                <path d="M207.000793,118.43365 L207.000793,233 C220.254691,233 231,227.870308 231,221.543043 L231,93 C215.660486,99.4185597 206.904049,108.696257 207.000793,118.43365 Z" id="Path"></path>
            </g>
            <path d="M280.264846,539.999261 C234.207042,540.134261 190.010511,521.766903 157.533369,488.991479 L12.5601699,343.50703 C-4.19337708,326.683733 -4.18602027,299.416934 12.5780364,282.604184 C20.6043107,274.55482 31.4808214,270.022834 42.8281677,269.999631 C53.2632701,270.008068 63.5533384,272.442283 72.8943788,277.109269 L134.52864,308.046375 L134.52864,89.9995253 C134.541252,65.146903 154.628482,45.0097822 179.39359,45.0234931 C187.256964,45.0277118 194.980558,47.106498 201.790857,51.0520786 L201.790857,44.9992353 C201.791908,20.1476677 221.867578,0 246.633737,0 C271.398845,0 291.475565,20.1476677 291.475565,45.00029 L291.475565,51.0531333 C312.922754,38.6268221 340.347872,46.0011871 352.730426,67.5241654 C356.662113,74.3585311 358.733579,82.1094189 358.737783,90.00058 L358.737783,96.0534232 C380.184971,83.6271121 407.610089,91.001477 419.992643,112.524455 C423.92433,119.358821 425.995796,127.109709 426,135.00087 L426,393.750164 C425.900158,474.480054 360.710457,539.900121 280.264846,539.999261 Z M40.5850669,295.090239 C29.1835525,295.122007 19.9672666,304.393118 20.0000874,315.796954 C20.0159684,321.24949 22.1863746,326.474351 26.0401691,330.332107 L172.106389,476.404782 C200.596941,505.062097 239.369925,521.122139 279.775477,520.9993 C348.34655,520.912467 403.913184,465.334515 404,396.749475 L404,136.954001 C404,124.477448 393.888025,114.363413 381.414012,114.363413 C368.939999,114.363413 358.828024,124.477448 358.828024,136.954001 L358.828024,238.613238 C358.828024,244.851515 353.771507,249.909062 347.5345,249.909062 C341.297494,249.909062 336.240977,244.851515 336.240977,238.613238 L336.240977,91.7717655 C336.240977,79.2952121 326.129001,69.181177 313.654989,69.181177 C301.180976,69.181177 291.069001,79.2952121 291.069001,91.7717655 L291.069001,238.613238 C291.069001,244.851515 286.012484,249.909062 279.775477,249.909062 C273.538471,249.909062 268.481954,244.851515 268.481954,238.613238 L268.481954,46.5905885 C268.481954,34.1140351 258.369978,24 245.895966,24 C233.421953,24 223.309978,34.1140351 223.309978,46.5905885 L223.309978,238.613238 C223.309978,244.851515 218.25346,249.909062 212.016454,249.909062 C205.779448,249.909062 200.722931,244.851515 200.722931,238.613238 L200.722931,91.7717655 C200.722931,79.2952121 190.610955,69.181177 178.136943,69.181177 C165.66293,69.181177 155.550954,79.2952121 155.550954,91.7717655 L155.550954,328.976651 C155.550954,335.214928 150.494437,340.272475 144.257431,340.271416 C142.50099,340.271416 140.7689,339.861602 139.198796,339.074802 L60.688322,299.856574 C54.4428458,296.742201 47.5631875,295.110359 40.5850669,295.090239 Z" id="Shape" fill="#262B49" fill-rule="nonzero"></path>
        </g>
    </g>
</svg>