<?xml version="1.0" encoding="UTF-8"?>
<svg width="406px" height="512px" viewBox="0 0 406 512" version="1.1" xmlns="http://www.w3.org/2000/svg" xmlns:xlink="http://www.w3.org/1999/xlink">
    <!-- Generator: Sketch 52.5 (67469) - http://www.bohemiancoding.com/sketch -->
    <title>open-hand</title>
    <desc>Created with Sketch.</desc>
    <g id="Page-1" stroke="none" stroke-width="1" fill="none" fill-rule="evenodd">
        <g id="open-hand">
            <g>
                <path d="M363.003,96 C345.33,96 331.003,110.327 331.003,128 L331.003,85.333 C331.003,67.66 316.676,53.333 299.003,53.333 C281.33,53.333 267.003,67.66 267.003,85.333 L267.003,42.667 C267.003,24.994 252.676,10.667 235.003,10.667 C217.33,10.667 203.003,24.994 203.003,42.667 L203.003,85.334 C203.003,67.661 188.676,53.334 171.003,53.334 C153.33,53.334 139.003,67.661 139.003,85.334 L139.003,309.334 L64.934,272.299 C57.529,268.596 49.363,266.668 41.083,266.667 C24.47,266.667 11.003,280.134 11.003,296.747 L11.003,296.875 C10.986,304.875 14.157,312.552 19.814,318.208 L157.755,456.149 C186.738,485.103 226.036,501.356 267.003,501.333 C337.695,501.333 395.003,444.025 395.003,373.333 L395.003,128 C395.003,110.327 380.676,96 363.003,96 Z" id="Path" fill="#F3C59F"></path>
                <g id="Group" transform="translate(203.000000, 18.000000)" fill="#FFB74D">
                    <path d="M0.002,216.667 C5.893,216.667 10.669,211.891 10.669,206 L10.669,0.987 C3.851,6.963 -0.04,15.601 0.002,24.667 L0.002,216.667 Z" id="Path"></path>
                    <path d="M64.003,216.667 C69.894,216.667 74.67,211.891 74.67,206 L74.67,43.653 C67.852,49.629 63.961,58.267 64.003,67.333 L64.003,216.667 Z" id="Path"></path>
                    <path d="M128.003,110 L128.003,216.667 C133.894,216.667 138.67,211.891 138.67,206 L138.67,86.32 C131.852,92.296 127.96,100.934 128.003,110 Z" id="Path"></path>
                </g>
                <path d="M267.003,512 C223.179,512.128 181.126,494.713 150.224,463.637 L12.282,325.696 C-3.659,309.745 -3.652,283.892 12.299,267.951 C19.936,260.319 30.285,256.022 41.082,256 C51.011,256.008 60.802,258.316 69.69,262.741 L128.335,292.074 L128.335,85.333 C128.347,61.769 147.46,42.676 171.024,42.689 C178.506,42.693 185.855,44.664 192.335,48.405 L192.335,42.666 C192.336,19.103 211.438,0 235.003,0 C258.567,0 277.67,19.103 277.67,42.667 L277.67,48.406 C298.077,36.624 324.172,43.616 335.954,64.023 C339.695,70.503 341.666,77.852 341.67,85.334 L341.67,91.073 C362.077,79.291 388.172,86.283 399.954,106.69 C403.695,113.17 405.666,120.519 405.67,128.001 L405.67,373.334 C405.575,449.878 343.547,511.906 267.003,512 Z M41.082,277.333 C30.313,277.363 21.608,286.118 21.639,296.887 C21.654,302.036 23.704,306.97 27.344,310.613 L165.307,448.554 C192.217,475.616 228.839,490.782 267.003,490.666 C331.77,490.584 384.254,438.1 384.336,373.333 L384.336,128 C384.336,116.218 374.785,106.667 363.003,106.667 C351.221,106.667 341.67,116.218 341.67,128 L341.67,224 C341.67,229.891 336.894,234.667 331.003,234.667 C325.112,234.667 320.336,229.891 320.336,224 L320.336,85.333 C320.336,73.551 310.785,64 299.003,64 C287.221,64 277.67,73.551 277.67,85.333 L277.67,224 C277.67,229.891 272.894,234.667 267.003,234.667 C261.112,234.667 256.336,229.891 256.336,224 L256.336,42.667 C256.336,30.885 246.785,21.334 235.003,21.334 C223.221,21.334 213.67,30.885 213.67,42.667 L213.67,224 C213.67,229.891 208.894,234.667 203.003,234.667 C197.112,234.667 192.336,229.891 192.336,224 L192.336,85.333 C192.336,73.551 182.785,64 171.003,64 C159.221,64 149.67,73.551 149.67,85.333 L149.67,309.333 C149.67,315.224 144.894,320 139.003,319.999 C137.344,319.999 135.708,319.612 134.225,318.869 L60.07,281.834 C54.171,278.893 47.673,277.352 41.082,277.333 Z" id="Shape" fill="#262B49" fill-rule="nonzero"></path>
            </g>
        </g>
    </g>
</svg>