<?xml version="1.0" encoding="UTF-8"?>
<svg width="202px" height="180px" viewBox="0 0 202 180" version="1.1" xmlns="http://www.w3.org/2000/svg" xmlns:xlink="http://www.w3.org/1999/xlink">
    <!-- Generator: Sketch 52.5 (67469) - http://www.bohemiancoding.com/sketch -->
    <title>bg-paint</title>
    <desc>Created with Sketch.</desc>
    <g id="bg-paint" stroke="none" stroke-width="1" fill="none" fill-rule="evenodd">
        <g id="pintura-copy-4">
            <g id="color">
                <rect id="Rectangle-Copy-24" fill="#FFFDF8" x="0" y="0" width="124" height="180"></rect>
                <rect id="Rectangle-Copy-3" fill="#262B49" x="52" y="0" width="53" height="20" rx="10"></rect>
                <rect id="Rectangle-Copy-4" fill="#262B49" transform="translate(85.000000, 90.000000) rotate(-360.000000) translate(-85.000000, -90.000000) " x="61" y="80" width="48" height="20" rx="10"></rect>
                <rect id="Rectangle-Copy-5" fill="#262B49" x="48" y="120" width="43" height="20" rx="10"></rect>
                <rect id="Rectangle-Copy-6" fill="#262B49" x="64" y="160" width="46" height="20" rx="10"></rect>
                <rect id="Rectangle-Copy-8" fill="#262B49" x="29" y="40" width="55" height="20" rx="10"></rect>
                <rect id="Rectangle-Copy-14" fill="#262B49" x="75" y="0" width="127" height="180"></rect>
            </g>
            <g id="blanco" transform="translate(17.000000, 20.000000)" fill="#FFFDF8">
                <rect id="Rectangle-Copy-15" x="25" y="0" width="70" height="20" rx="10"></rect>
                <rect id="Rectangle-Copy-16" x="0" y="40" width="70" height="20" rx="10"></rect>
                <rect id="Rectangle-Copy-17" x="18" y="80" width="87" height="20" rx="10"></rect>
                <rect id="Rectangle-Copy-18" x="21" y="120" width="60" height="20" rx="10"></rect>
            </g>
        </g>
    </g>
</svg>