<?xml version="1.0" encoding="UTF-8"?>
<svg width="1200px" height="318px" viewBox="0 0 1200 318" version="1.1" xmlns="http://www.w3.org/2000/svg" xmlns:xlink="http://www.w3.org/1999/xlink">
    <!-- Generator: Sketch 52.5 (67469) - http://www.bohemiancoding.com/sketch -->
    <title>bg-dark-opac-25</title>
    <desc>Created with Sketch.</desc>
    <g id="bg-dark-opac-25" stroke="none" stroke-width="1" fill="none" fill-rule="evenodd">
        <g id="fondo-pintura-copy-2" transform="translate(769.000000, -80.000000)">
            <g id="color" transform="translate(0.000000, 40.000000)" fill="#9295A4">
                <g id="curvas">
                    <rect id="Rectangle-Copy-4" transform="translate(178.217822, 180.000000) rotate(-360.000000) translate(-178.217822, -180.000000) " x="120" y="160" width="116.435644" height="40" rx="20"></rect>
                    <rect id="Rectangle-Copy-5" x="107" y="239" width="104.306931" height="40" rx="20"></rect>
                    <g id="Rectangle-Copy-9" transform="translate(139.000000, 319.000000)">
                        <rect id="Rectangle-Copy-6" x="0" y="0" width="111.584158" height="40" rx="20"></rect>
                    </g>
                    <rect id="Rectangle-Copy-8" x="58" y="80" width="133.415842" height="40" rx="20"></rect>
                </g>
                <rect id="Rectangle-Copy-14" x="168" y="1.70530257e-13" width="262.069307" height="359"></rect>
            </g>
            <g id="blanco" transform="translate(31.000000, 80.000000)" fill="#FFFDF8">
                <g id="curvas">
                    <rect id="Rectangle-Copy-15" x="7" y="0" width="247" height="40" rx="20"></rect>
                    <rect id="Rectangle-Copy-16" x="0" y="80" width="188" height="40" rx="20"></rect>
                    <rect id="Rectangle-Copy-17" x="0" y="160" width="271.285714" height="40" rx="20"></rect>
                    <rect id="Rectangle-Copy-18" x="1" y="239" width="210.714286" height="40" rx="20"></rect>
                </g>
            </g>
        </g>
    </g>
</svg>